<svg width="14" height="17" viewBox="0 0 14 17" fill="none" xmlns="http://www.w3.org/2000/svg">
<path d="M12.7574 5.5778C12.2365 5.8967 11.805 6.34255 11.5034 6.87361C11.2017 7.40467 11.0397 8.00358 11.0326 8.6143C11.0346 9.30165 11.2383 9.9733 11.6183 10.5461C11.9983 11.1188 12.538 11.5675 13.1705 11.8366C12.9211 12.6412 12.552 13.4037 12.0757 14.0984C11.3941 15.0796 10.6814 16.0607 9.59699 16.0607C8.51259 16.0607 8.23369 15.4307 6.98399 15.4307C5.76529 15.4307 5.33149 16.0814 4.33999 16.0814C3.34849 16.0814 2.65659 15.1725 1.86129 14.0571C0.810755 12.4945 0.233396 10.662 0.198486 8.7795C0.198486 5.6811 2.21249 4.039 4.19539 4.039C5.24889 4.039 6.12679 4.7309 6.78779 4.7309C7.41779 4.7309 8.39899 3.9976 9.59699 3.9976C10.213 3.9817 10.8234 4.11752 11.3745 4.39308C11.9256 4.66864 12.4005 5.07549 12.7574 5.5778ZM9.02899 2.686C9.55709 2.06476 9.85603 1.28112 9.87589 0.465996C9.87678 0.358538 9.86639 0.251284 9.84489 0.145996C8.93774 0.23461 8.09889 0.666971 7.50039 1.3544C6.96719 1.95088 6.65699 2.71359 6.62249 3.5129C6.62289 3.6101 6.63327 3.70701 6.65349 3.8021C6.725 3.81561 6.79761 3.82254 6.87039 3.8228C7.28846 3.78953 7.6954 3.6716 8.06648 3.47617C8.43756 3.28075 8.76503 3.01191 9.02899 2.686Z" fill="black" fill-opacity="0.88"/>
</svg>
